# xmcd
#
# Track frame offsets:
# 150
# 11580
# 23342
# 34787
# 49285
# 62210
# 73140
# 85435
# 98320
# 111187
# 124595
# 135785
# 148022
# 159650
# 170550
# 182812
#
# Disc length: 2593 seconds
#
# Revision: 0
# Processed by: cddbd v1.4PL0 Copyright (c) Steve Scherf et al.
# Submitted via: Axialis_AX_CDPlayer 2.6
#
DISCID=d20a1f10
DTITLE=Songs Of America - Bronco Buster Mono CD #9003
DYEAR=1900
DGENRE=
TTITLE0=No Where, No Time, No Place
TTITLE1=Proud Papa Polka
TTITLE2=Tennessee Steel Guitar
TTITLE3=Paper Roses
TTITLE4=Fog Rising On The Mountain
TTITLE5=Spookie Boogie
TTITLE6=Gomango
TTITLE7=Catawba River Blues
TTITLE8=Put Some Meat On Them Bones
TTITLE9=Tropical Island
TTITLE10=Tar Heel Rag
TTITLE11=North Carolina Skies
TTITLE12=Barn Dance Breakdown
TTITLE13=No Blues, No Blues For Me
TTITLE14=One Little Flower
TTITLE15=Contentment
EXTD=
EXTT0=
EXTT1=
EXTT2=
EXTT3=
EXTT4=Recorded 1956
EXTT5=
EXTT6=Recorded 1955
EXTT7=
EXTT8=
EXTT9=
EXTT10=
EXTT11=
EXTT12=
EXTT13=
EXTT14=
EXTT15=Recorded 1956
PLAYORDER=
